<?xml version="1.0" encoding="UTF-8"?>
<svg width="250px" height="250px" viewBox="0 0 250 250" version="1.1" xmlns="http://www.w3.org/2000/svg" xmlns:xlink="http://www.w3.org/1999/xlink">
    <!-- Generator: Sketch 52.6 (67491) - http://www.bohemiancoding.com/sketch -->
    <title>newsapi</title>
    <desc>Created with Sketch.</desc>
    <defs>
        <rect id="path-1" x="0" y="0" width="250" height="250" rx="125"></rect>
    </defs>
    <g id="newsapi" stroke="none" stroke-width="1" fill="none" fill-rule="evenodd">
        <mask id="mask-2" fill="white">
            <use xlink:href="#path-1"></use>
        </mask>
        <use id="Rectangle-5" fill="#005566" xlink:href="#path-1"></use>
        <g id="Group-11" mask="url(#mask-2)" fill="#FFFFFF">
            <g transform="translate(75.000000, 75.000000)">
                <path d="M86.426,16.035 L68.574,16.035 L68.574,3.144 C68.574,1.6206 67.3435,0.3901 65.8201,0.3901 L10.9761,0.3901 C5.136302,0.3901 0.390101,5.1362 0.390101,10.9761 L0.390101,86.4251 C0.390101,93.690698 6.308101,99.609098 13.5741,99.609098 L86.4261,99.609098 C93.6917,99.609098 99.6101,93.691098 99.6101,86.4251 L99.6101,29.2181 C99.6101,21.9525 93.6921,16.0341 86.4261,16.0341 L86.426,16.035 Z M10.97701,5.898 L63.06701,5.898 L63.06701,16.035 L10.97701,16.035 C8.184005,16.035 5.898905,13.7694 5.898905,10.9764 C5.898905,8.1834 8.184105,5.8983 10.97701,5.8983 L10.97701,5.898 Z M94.10201,86.425 C94.10201,90.6633 90.66451,94.1008 86.42621,94.1008 L13.57421,94.1008 C9.335908,94.1008 5.898408,90.6633 5.898408,86.425 L5.898408,20.253 C7.402308,21.07331 9.140608,21.5421 10.97651,21.5421 L86.42551,21.5421 C90.66381,21.5421 94.10131,24.9796 94.10131,29.2179 L94.10201,86.425 Z" id="Fill-1"></path>
                <path d="M86.445,26.465 L65.625,26.465 C64.2188,26.465 62.8711,27.6759 62.8711,29.2189 L62.8711,47.1289 C62.8711,48.6523 64.1016,49.8828 65.625,49.8828 L86.445,49.8828 C87.9684,49.8828 89.1989,48.6523 89.1989,47.1289 L89.1989,29.2379 C89.1989,27.6949 87.9684,26.4645 86.445,26.4645 L86.445,26.465 Z M83.6716,44.375 L68.3596,44.375 L68.3596,31.992 L83.6716,31.992 L83.6716,44.375 Z" id="Fill-2"></path>
                <path d="M86.445,57.441 L13.593,57.441 C12.0696,57.441 10.8391,58.6715 10.8391,60.1949 C10.8391,61.7183 12.0696,62.9488 13.593,62.9488 L86.445,62.9488 C87.9684,62.9488 89.1989,61.7183 89.1989,60.1949 C89.1989,58.6715 87.9684,57.441 86.445,57.441 Z" id="Fill-3"></path>
                <path d="M13.594,49.883 L50.02,49.883 C51.5434,49.883 52.7739,48.6525 52.7739,47.1291 C52.7739,45.6057 51.5434,44.3752 50.02,44.3752 L13.594,44.3752 C12.0706,44.3752 10.8401,45.6057 10.8401,47.1291 C10.8401,48.6525 12.0706,49.883 13.594,49.883 Z" id="Fill-4"></path>
                <path d="M86.445,70.508 L13.593,70.508 C12.0696,70.508 10.8391,71.7385 10.8391,73.2619 C10.8391,74.7853 12.0696,76.0158 13.593,76.0158 L86.445,76.0158 C87.9684,76.0158 89.1989,74.7853 89.1989,73.2619 C89.1989,71.7385 87.9684,70.508 86.445,70.508 Z" id="Fill-5"></path>
                <path d="M86.445,83.574 L13.593,83.574 C12.0696,83.574 10.8391,84.8045 10.8391,86.3279 C10.8391,87.8513 12.0696,89.0818 13.593,89.0818 L86.445,89.0818 C87.9684,89.0818 89.1989,87.8513 89.1989,86.3279 C89.1989,84.8045 87.9684,83.574 86.445,83.574 Z" id="Fill-6"></path>
                <polygon id="Fill-7" points="13.672 31.445 18.7892 38.1638 21.1915 38.1638 21.1915 27.4408 18.7892 27.4408 18.7892 34.3353 13.5158 27.4408 11.2892 27.4408 11.2892 38.1638 13.672 38.1638"></polygon>
                <polygon id="Fill-8" points="31.738 36.055 26.2302 36.055 26.2302 33.8284 31.0349 33.8284 31.0349 31.7776 26.2302 31.7776 26.2302 29.5706 31.5622 29.5706 31.5622 27.4417 23.8278 27.4417 23.8278 38.1647 31.738 38.1647"></polygon>
                <polygon id="Fill-9" points="38.027 38.164 40.3708 30.7031 42.7146 38.164 44.4919 38.164 48.2419 27.441 45.6442 27.441 43.5153 33.6129 41.6208 27.441 39.1208 27.441 37.2067 33.6129 35.0973 27.441 32.4996 27.441 36.2496 38.164"></polygon>
                <path d="M53.301,36.172 C52.32444,36.172 51.2502,35.66419 50.0979,34.6486 L48.6721,36.4064 C50.0393,37.6564 51.5627,38.3009 53.2619,38.3009 C55.5861,38.3009 57.1877,36.9532 57.1877,35.0587 C57.26582,33.2032 55.9963,32.2267 53.965,31.7384 C52.5002,31.34778 51.6408,31.09387 51.6017,30.3322 C51.67982,29.72673 52.01186,29.297 52.8908,29.297 C53.88689,29.297 54.8439,29.64856 55.7814,30.3517 L56.9923,28.5939 C55.8985,27.75406 54.6095,27.2072 52.9689,27.1877 C50.5861,27.32442 49.1994,28.301 49.1212,30.3713 C49.1212,32.3244 50.2735,33.2229 52.7345,33.7697 C53.7892,34.02361 54.7853,34.31658 54.7072,35.1174 C54.74626,35.80099 53.96501,36.2112 53.301,36.1721 L53.301,36.172 Z" id="Fill-10"></path>
            </g>
        </g>
    </g>
</svg>